<svg xmlns="http://www.w3.org/2000/svg" xmlns:xlink="http://www.w3.org/1999/xlink" width="500" zoomAndPan="magnify" viewBox="0 0 375 374.999991" height="500" preserveAspectRatio="xMidYMid meet" version="1.0"><defs><clipPath id="1b8f96ea40"><path d="M 176 79.183594 L 297 79.183594 L 297 295.933594 L 176 295.933594 Z M 176 79.183594 " clip-rule="nonzero"/></clipPath><clipPath id="79c916f14d"><path d="M 77 92 L 170 92 L 170 257 L 77 257 Z M 77 92 " clip-rule="nonzero"/></clipPath><clipPath id="0616dd363c"><path d="M 99.351562 92.367188 C 97.277344 102.785156 102.484375 113.523438 109.984375 121.023438 C 117.480469 128.519531 127.078125 133.511719 136.238281 138.871094 C 145.402344 144.230469 154.542969 150.324219 160.3125 159.25 C 165.328125 167.007812 167.359375 176.300781 168.417969 185.484375 C 169.691406 196.59375 169.519531 208.285156 165.976562 218.765625 C 163.402344 212.457031 160.054688 206.40625 156.230469 200.765625 C 148.730469 189.65625 139.503906 179.84375 130.316406 170.097656 C 119.578125 158.710938 108.859375 147.320312 98.117188 135.933594 C 109.226562 156.765625 126.449219 173.535156 141.015625 192.140625 C 155.582031 210.726562 167.984375 232.921875 166.625 256.496094 C 165.542969 244.4375 155.753906 234.863281 145.144531 229.03125 C 134.53125 223.195312 122.625 219.953125 112.144531 213.859375 C 92.347656 202.277344 79.035156 180.320312 78 157.4375 C 76.960938 134.292969 87.53125 112.292969 99.351562 92.367188 Z M 99.351562 92.367188 " clip-rule="nonzero"/></clipPath><linearGradient x1="-1204.20996" gradientTransform="matrix(-0.216102, 0, 0, 0.216102, -136.697563, 79.184968)" y1="60.99999" x2="-1204.20996" gradientUnits="userSpaceOnUse" y2="820.50004" id="d329dc4d3e"><stop stop-opacity="1" stop-color="rgb(53.129578%, 48.405457%, 40.829468%)" offset="0"/><stop stop-opacity="1" stop-color="rgb(52.952576%, 48.431396%, 40.678406%)" offset="0.25"/><stop stop-opacity="1" stop-color="rgb(52.601624%, 48.484802%, 40.377808%)" offset="0.5"/><stop stop-opacity="1" stop-color="rgb(52.249146%, 48.538208%, 40.077209%)" offset="0.75"/><stop stop-opacity="1" stop-color="rgb(51.896667%, 48.591614%, 39.776611%)" offset="1"/></linearGradient></defs><g clip-path="url(#1b8f96ea40)"><path fill="#8b7b6b" d="M 268.472656 79.183594 C 271.21875 92.929688 264.34375 107.105469 254.449219 117.003906 C 244.550781 126.921875 231.886719 133.492188 219.804688 140.558594 C 207.703125 147.625 195.625 155.683594 188.039062 167.460938 C 181.425781 177.707031 178.726562 189.980469 177.34375 202.082031 C 175.613281 216.777344 175.851562 232.183594 180.519531 246.015625 C 183.910156 237.675781 188.339844 229.699219 193.375 222.246094 C 203.273438 207.570312 215.460938 194.625 227.585938 181.746094 C 241.761719 166.707031 255.917969 151.6875 270.09375 136.648438 C 255.417969 164.136719 232.6875 186.308594 213.472656 210.835938 C 194.261719 235.382812 177.882812 264.6875 179.675781 295.804688 C 181.101562 279.878906 194.023438 267.238281 208.050781 259.542969 C 222.074219 251.851562 237.785156 247.550781 251.59375 239.511719 C 277.722656 224.296875 295.289062 195.296875 296.652344 165.085938 C 298.035156 134.527344 284.097656 105.464844 268.472656 79.183594 Z M 268.472656 79.183594 " fill-opacity="1" fill-rule="nonzero"/></g><g clip-path="url(#79c916f14d)"><g clip-path="url(#0616dd363c)"><path fill="url(#d329dc4d3e)" d="M 169.691406 92.367188 L 169.691406 256.496094 L 76.960938 256.496094 L 76.960938 92.367188 Z M 169.691406 92.367188 " fill-rule="nonzero"/></g></g></svg>